<svg xmlns:dc="http://purl.org/dc/elements/1.1/" xmlns:cc="http://creativecommons.org/ns#" xmlns:rdf="http://www.w3.org/1999/02/22-rdf-syntax-ns#" xmlns:svg="http://www.w3.org/2000/svg" xmlns="http://www.w3.org/2000/svg" version="1.1" viewBox="0 0 100 125" x="0px" y="0px"><g transform="translate(0,448)"><path d="M 30.40625,5 C 29.524243,5 28.689712,5.15236 27.84375,5.625 26.997626,6.09764 25.875,7.15429 25.875,8.8125 l 0,28.15625 c 0.833642,-0.64506 1.84058,-1.05344 2.9375,-1 1.093462,-0.0413 2.116684,0.34935 2.9375,1 l 0,-26.09375 49.53125,0 0,69.90625 -34.6875,0.28125 c -0.474642,2.05667 -1.454443,3.94899 -2.75,5.59375 l 38.78125,0 c 0.882005,0 1.716376,-0.15236 2.5625,-0.625 0.845963,-0.47264 1.96875,-1.5293 1.96875,-3.1875 l 0,-74.03125 C 87.15625,7.15429 86.033463,6.09764 85.1875,5.625 84.341368,5.15236 83.507005,5 82.625,5 L 30.40625,5 z m 8.65625,13.46875 c -0.801426,0 -1.583883,0.24286 -2.25,0.71875 -0.666135,0.4759 -1.28125,1.3246 -1.28125,2.375 0,1.05039 0.615115,1.89912 1.28125,2.375 0.666117,0.47589 1.448574,0.71875 2.25,0.71875 l 34.90625,0 c 0.80141,0 1.552616,-0.24286 2.21875,-0.71875 0.666118,-0.47588 1.28125,-1.32461 1.28125,-2.375 0,-1.0504 -0.615132,-1.8991 -1.28125,-2.375 -0.666134,-0.47589 -1.41734,-0.71875 -2.21875,-0.71875 l -34.90625,0 z m 0,16.1875 c -0.801426,0 -1.583883,0.2116 -2.25,0.6875 -0.666135,0.47589 -1.28125,1.35586 -1.28125,2.40625 0,1.05039 0.615115,1.89912 1.28125,2.375 0.666117,0.4759 1.448574,0.6875 2.25,0.6875 l 34.90625,0 c 0.80141,0 1.552616,-0.2116 2.21875,-0.6875 0.666118,-0.47588 1.28125,-1.32461 1.28125,-2.375 0,-1.05039 -0.615132,-1.93036 -1.28125,-2.40625 -0.666134,-0.4759 -1.41734,-0.6875 -2.21875,-0.6875 l -34.90625,0 z m -10.28125,3.625 c -1.469272,0 -2.65625,1.20985 -2.65625,2.6875 l 0,1.625 c -3.256681,0.4772 -6.03086,2.03086 -8.375,4.375 -2.40693,2.41949 -3.59375,5.52839 -3.59375,9.3125 0,2.90087 0.600518,5.28317 1.84375,7.125 3.265053,4.80549 9.369377,6.62838 14.65625,8.15625 2.017635,0.58185 3.447664,1.5417 4.40625,2.4375 0.966957,0.89161 1.46875,2.16907 1.46875,3.90625 0,1.82089 -0.792283,3.36958 -1.5625,4.09375 -2.800413,2.97204 -6.17679,2.79086 -8.5,2.0625 -3.934807,-1.26835 -4.663019,-4.5149 -5.90625,-7.15625 -0.577664,-1.21811 -1.87137,-1.9375 -3.5625,-1.9375 -2.289723,0 -4.193924,1.85816 -4.15625,4.15625 0.02093,1.15114 0.422916,2.34778 0.875,3.28125 1.41067,2.90925 3.937321,5.57374 6.6875,6.75 1.762291,0.75766 3.717859,1.26753 5.71875,1.53125 l 0,1.65625 C 26.125,93.8172 27.311978,95 28.78125,95 c 1.47346,0 2.65625,-1.1828 2.65625,-2.65625 l 0,-1.59375 c 3.633416,-0.4186 7.090254,-1.80482 9.65625,-4.375 2.40693,-2.41949 3.625,-5.49714 3.625,-9.28125 0,-2.89669 -0.608891,-5.27061 -1.84375,-7.125 -1.519505,-2.27297 -3.828564,-3.96859 -6.21875,-4.90625 -1.636713,-0.64045 -3.346544,-1.05152 -5,-1.625 -3.302726,-1.15114 -6.192744,-1.23271 -8.21875,-4.53125 -1.423228,-2.30228 -1.395085,-5.19635 0.25,-7.34375 1.548806,-2.00926 4.202985,-3.14854 6.71875,-2.5625 1.502761,0.35162 2.827138,1.28802 3.71875,2.53125 1.046492,1.46927 1.046469,3.3114 1.8125,4.90625 0.573477,1.22231 1.871372,1.9375 3.5625,1.9375 2.289725,0 4.193922,-1.85397 4.15625,-4.15625 -0.02093,-1.15114 -0.448031,-2.33941 -0.875,-3.28125 -1.289277,-2.8632 -3.597758,-5.13479 -6.34375,-6.625 -1.544623,-0.83719 -3.25864,-1.39867 -5,-1.6875 l 0,-1.65625 c 0,-1.47765 -1.18279,-2.6875 -2.65625,-2.6875 z m 16.5,12.5625 c 0.602332,1.59958 0.823272,3.31438 0.4375,5.03125 C 45.6392,56.27659 45.535063,56.64134 45.375,57 l 28.59375,0 c 0.80141,0 1.552616,-0.2116 2.21875,-0.6875 0.666118,-0.47588 1.28125,-1.32461 1.28125,-2.375 0,-1.0504 -0.615132,-1.93036 -1.28125,-2.40625 -0.666134,-0.4759 -1.41734,-0.6875 -2.21875,-0.6875 l -28.6875,0 z m -1.75,16.1875 c 1.504572,1.74987 2.515779,3.88478 3.0625,6.15625 l 27.375,0 c 0.80141,0 1.552616,-0.2116 2.21875,-0.6875 0.666118,-0.47588 1.28125,-1.35586 1.28125,-2.40625 0,-1.05039 -0.615132,-1.8991 -1.28125,-2.375 -0.666134,-0.4759 -1.41734,-0.6875 -2.21875,-0.6875 l -30.4375,0 z" transform="translate(0,-448)" style="text-indent:0;text-transform:none;direction:ltr;block-progression:tb;baseline-shift:baseline;color:#333333;enable-background:accumulate;" fill="#000000" fill-opacity="1" stroke="none" marker="none" visibility="visible" display="inline" overflow="visible"/></g><text x="0" y="115" fill="#000000" font-size="5px" font-weight="bold" font-family="'Helvetica Neue', Helvetica, Arial-Unicode, Arial, Sans-serif">Created by Aha-Soft</text><text x="0" y="120" fill="#000000" font-size="5px" font-weight="bold" font-family="'Helvetica Neue', Helvetica, Arial-Unicode, Arial, Sans-serif">from the Noun Project</text></svg>